# xmcd
#
# Track frame offsets:
#	150
#	12460
#	25489
#	41058
#	56380
#	67362
#	82710
#	98868
#	119922
#	135250
#	148767
#	166210
#	179201
#
# Disc length: 2656 seconds
#
# Revision: 3
# Processed by: cddbd v1.5.1PL2 Copyright (c) Steve Scherf et al.
# Submitted via: MusicManager 7.3.0.0 
#
DISCID=be0a5e0d
DTITLE=June Carter Cash - Wildwood Flower
DYEAR=2003
DGENRE=Country
TTITLE0=Keep On The Sunny Side
TTITLE1=The Road To Kaintuck
TTITLE2=(Carter Girls Intro) Kneeling Drunkard's Plea
TTITLE3=Storms Are On The Ocean
TTITLE4=(Little Junie Intro) Temptation
TTITLE5=Big Yellow Peaches
TTITLE6=Alcatraz
TTITLE7=Sinking In The Lonesome Sea
TTITLE8=Lonesome Valley
TTITLE9=Cannonball Blues
TTITLE10=Will You Miss Me When I'm Gone?
TTITLE11=Anchored In Love
TTITLE12=Wildwood Flower
EXTD=(c)2003 Dual Tone Music Group Inc.  under License to Blue Rose Records, Raubeckstr. 16, 74232 Abstatt/Germany\nwww.bluerose-records.com\nProduced by John Carter Cash\nBLU CD 0316\nupc 4028466303165
EXTT0=
EXTT1=
EXTT2=
EXTT3=
EXTT4=
EXTT5=
EXTT6=
EXTT7=
EXTT8=
EXTT9=
EXTT10=
EXTT11=
EXTT12=
PLAYORDER=
